<?xml version="1.0" standalone="no"?>
<!DOCTYPE svg PUBLIC "-//W3C//DTD SVG 20010904//EN"
 "http://www.w3.org/TR/2001/REC-SVG-20010904/DTD/svg10.dtd">
<svg version="1.0" xmlns="http://www.w3.org/2000/svg"
 width="1614.000000pt" height="1614.000000pt" viewBox="0 0 1614.000000 1614.000000"
 preserveAspectRatio="xMidYMid meet">
<metadata>
Created by potrace 1.14, written by Peter Selinger 2001-2017
</metadata>
<g transform="translate(0.000000,1614.000000) scale(0.100000,-0.100000)"
fill="#000000" stroke="none">
<path d="M8025 16133 c-32 -8 -84 -51 -101 -85 -21 -41 -21 -115 -1 -158 35
-73 146 -113 217 -79 67 33 95 72 104 144 14 114 -100 207 -219 178z"/>
<path d="M8615 14859 c-11 -4 -35 -13 -54 -20 -39 -14 -111 -80 -131 -119 -20
-36 -37 -120 -33 -155 8 -75 27 -117 72 -163 47 -48 91 -85 91 -77 0 2 15 -2
33 -9 17 -7 44 -12 60 -11 15 1 27 -2 27 -7 0 -5 6 -6 13 -1 6 4 19 8 27 9 62
5 159 62 184 109 6 11 14 22 17 25 9 7 37 92 38 113 1 9 1 23 2 30 1 29 -13
93 -27 123 -15 31 -104 133 -104 119 0 -3 -10 1 -22 9 -40 26 -153 41 -193 25z"/>
<path d="M7417 14234 c-1 -1 -18 -4 -37 -7 -67 -9 -159 -54 -202 -98 -10 -10
-23 -21 -30 -26 -35 -22 -100 -135 -116 -201 -12 -53 -6 -196 11 -245 18 -51
77 -159 77 -142 1 6 6 0 13 -12 25 -44 160 -128 227 -140 48 -9 175 -5 220 7
107 27 203 103 262 207 18 32 33 61 34 66 1 4 2 8 4 10 8 9 13 55 15 137 2 83
-1 104 -23 160 -14 36 -29 67 -34 68 -4 2 -8 9 -8 15 0 23 -99 117 -155 148
-52 29 -132 50 -195 53 -33 1 -61 1 -63 0z"/>
<path d="M6228 12904 c-3 -3 -28 -7 -54 -9 -131 -11 -269 -75 -364 -167 -65
-64 -123 -142 -113 -152 4 -3 1 -6 -5 -6 -7 0 -12 -8 -12 -18 0 -10 -5 -23
-12 -30 -6 -6 -13 -22 -15 -34 -2 -13 -6 -30 -10 -38 -19 -46 -34 -183 -20
-196 3 -4 2 -15 -4 -25 -5 -11 -6 -19 -1 -19 5 0 9 -6 9 -12 7 -104 75 -245
159 -332 55 -56 134 -116 153 -116 6 0 11 -5 11 -12 0 -6 3 -8 7 -5 3 4 15 0
25 -10 10 -9 18 -13 18 -8 0 4 7 1 17 -6 9 -8 18 -13 20 -11 1 1 4 2 6 1 1 0
9 -2 17 -4 8 -2 26 -7 40 -10 14 -4 46 -8 73 -9 26 -2 50 -6 53 -9 4 -4 7
-499 8 -1101 l1 -1095 -120 -53 c-66 -29 -140 -62 -164 -75 -24 -13 -50 -23
-57 -23 -7 0 -14 -3 -16 -7 -1 -5 -50 -32 -108 -62 -58 -29 -112 -60 -121 -67
-8 -8 -19 -14 -24 -14 -12 0 -209 -121 -217 -134 -4 -6 -8 -7 -8 -3 0 4 -10
-1 -22 -13 -12 -11 -26 -20 -30 -20 -5 0 -14 -4 -21 -10 -7 -5 -41 -31 -77
-57 -93 -67 -213 -156 -227 -168 -7 -5 -18 -14 -25 -20 -212 -165 -504 -451
-688 -675 -25 -30 -49 -60 -55 -66 -11 -12 -25 -31 -114 -149 -33 -44 -65 -85
-71 -92 -5 -7 -10 -17 -10 -23 0 -5 -4 -10 -10 -10 -5 0 -10 -7 -10 -15 0 -7
-6 -18 -13 -22 -6 -4 -18 -20 -26 -35 -8 -15 -21 -36 -30 -45 -16 -18 -81
-121 -81 -128 0 -2 -12 -21 -26 -42 -14 -21 -30 -47 -35 -58 -6 -11 -23 -42
-39 -70 -16 -27 -44 -79 -62 -115 -18 -36 -37 -68 -41 -71 -5 -3 -8 -10 -8
-15 2 -12 -32 -78 -41 -82 -5 -2 -8 -9 -8 -16 0 -7 -8 -30 -19 -52 -51 -109
-91 -204 -84 -204 3 0 -2 -9 -12 -20 -10 -11 -14 -20 -10 -20 5 0 4 -5 -3 -12
-7 -7 -12 -18 -12 -24 0 -7 -5 -25 -12 -41 -6 -15 -12 -32 -14 -38 -2 -5 -17
-48 -34 -95 -18 -47 -33 -92 -35 -100 -2 -8 -13 -46 -25 -84 -12 -38 -24 -76
-26 -85 -2 -9 -22 -88 -44 -176 -23 -88 -43 -177 -45 -197 -1 -20 -5 -40 -8
-45 -3 -4 -8 -33 -12 -63 -4 -30 -8 -57 -10 -60 -2 -3 -7 -33 -10 -65 -4 -33
-9 -69 -11 -80 -3 -11 -7 -42 -10 -70 -2 -27 -6 -64 -9 -80 -13 -92 -20 -271
-19 -515 0 -252 4 -334 19 -475 3 -27 8 -66 10 -85 2 -19 6 -51 9 -70 3 -19 8
-51 10 -70 6 -46 16 -109 22 -140 3 -14 7 -38 10 -55 3 -16 7 -37 10 -45 3 -8
8 -32 11 -53 3 -21 25 -114 49 -205 50 -190 45 -168 69 -247 10 -33 19 -64 21
-70 2 -10 60 -168 71 -195 3 -8 8 -24 10 -34 2 -11 7 -24 12 -30 7 -10 55
-124 56 -136 2 -14 170 -360 207 -425 13 -22 28 -43 33 -47 6 -4 6 -8 2 -8 -5
0 1 -13 12 -29 12 -16 21 -32 21 -35 0 -3 14 -25 30 -49 17 -25 30 -48 30 -51
0 -4 5 -12 11 -19 13 -15 111 -163 124 -188 5 -11 13 -19 17 -19 5 0 8 -7 8
-15 0 -8 4 -15 8 -15 4 0 15 -12 24 -27 9 -16 28 -41 42 -58 14 -16 26 -33 26
-36 0 -4 12 -21 28 -38 44 -49 52 -60 52 -66 0 -3 10 -17 23 -30 46 -49 67
-73 67 -77 0 -19 370 -394 490 -498 41 -36 77 -67 80 -70 16 -16 124 -103 180
-145 36 -26 67 -52 68 -57 2 -4 9 -8 15 -8 7 -1 28 -14 47 -30 19 -17 40 -30
47 -30 7 0 13 -4 13 -8 0 -7 160 -116 231 -157 10 -5 54 -31 98 -57 44 -27 85
-48 91 -48 5 0 10 -4 10 -9 0 -5 15 -15 33 -22 17 -7 58 -28 90 -46 33 -18 65
-33 73 -33 8 0 14 -4 14 -10 0 -5 4 -10 9 -10 5 0 43 -16 85 -35 42 -20 79
-36 83 -36 5 0 15 -7 24 -14 8 -8 24 -16 35 -18 10 -2 37 -11 59 -21 22 -10
50 -22 63 -27 12 -5 32 -13 45 -19 55 -23 282 -102 311 -107 17 -3 36 -9 41
-13 8 -6 40 -16 80 -25 6 -2 37 -10 70 -19 98 -27 126 -34 165 -42 14 -3 33
-7 42 -10 19 -6 16 -5 158 -33 58 -11 119 -22 135 -25 17 -2 30 -5 30 -6 0 -1
20 -3 44 -5 25 -3 60 -7 78 -10 18 -3 48 -7 66 -10 236 -36 818 -41 1077 -9
30 4 74 8 97 8 24 1 43 4 43 7 0 3 12 6 28 6 15 1 41 4 57 7 17 3 44 8 60 10
17 3 44 7 60 10 17 3 45 8 63 11 18 3 60 12 92 19 33 8 60 12 60 9 0 -3 7 0
15 7 8 7 15 10 15 8 0 -3 35 3 78 14 42 10 85 21 95 23 9 2 21 6 25 9 5 3 22
8 38 10 16 3 83 24 149 46 66 22 128 42 137 45 9 2 27 9 40 16 13 7 24 12 25
11 4 -2 32 8 193 74 138 56 371 169 516 250 137 77 174 99 174 106 0 5 5 8 11
8 13 0 251 158 261 174 5 6 8 7 8 1 0 -6 3 -5 8 1 4 6 34 31 67 55 60 44 200
154 221 174 6 5 33 28 59 50 135 115 387 367 490 491 22 27 50 59 63 72 12 12
22 26 22 29 0 3 10 14 22 24 11 11 17 19 12 19 -5 0 2 7 14 16 12 8 22 20 22
26 0 6 8 18 18 27 9 9 22 23 27 32 12 19 70 97 90 121 7 9 11 19 8 22 -4 3 -2
6 3 6 5 0 30 30 54 68 24 37 46 69 49 72 3 3 13 17 21 32 8 15 41 70 73 123
33 53 72 119 88 148 36 66 181 359 203 412 9 22 22 48 27 59 6 10 12 26 14 35
2 9 21 56 41 106 20 49 38 97 40 105 2 8 17 53 34 100 28 77 87 275 95 317 2
10 4 19 5 21 2 1 4 7 5 12 1 6 3 11 5 13 1 1 3 9 5 17 5 26 28 135 31 145 6
23 13 55 18 89 3 20 10 54 15 75 5 22 6 42 3 46 -3 3 -1 5 4 5 5 0 9 10 10 23
1 24 12 117 18 157 46 267 56 837 21 1145 -16 144 -42 322 -55 381 -6 25 -8
50 -5 55 4 5 2 9 -2 9 -5 0 -9 8 -10 18 -1 9 -4 31 -8 47 -3 17 -8 41 -11 55
-3 14 -8 34 -11 45 -4 11 -7 27 -8 35 -1 8 -8 35 -15 60 -7 25 -14 52 -15 60
-2 8 -4 15 -5 15 -1 0 -3 11 -6 25 -2 14 -8 36 -13 50 -12 32 -74 233 -75 242
-1 3 -4 10 -9 14 -4 4 -7 14 -7 22 0 8 -6 28 -14 45 -7 18 -22 55 -31 82 -10
28 -25 66 -34 85 -8 19 -15 37 -16 40 -11 38 -79 183 -164 350 -46 91 -89 175
-95 187 -6 13 -14 23 -18 23 -5 0 -8 5 -8 10 0 6 -19 41 -41 78 -23 37 -47 76
-53 87 -13 24 -146 223 -163 245 -33 42 -109 144 -118 158 -10 15 -41 55 -60
76 -6 6 -33 38 -60 71 -27 33 -64 76 -82 95 -120 129 -143 156 -143 163 0 5
-4 5 -10 2 -5 -3 -10 -2 -10 3 0 8 -99 109 -186 189 -59 54 -196 171 -266 228
-52 43 -226 170 -283 208 -38 26 -75 51 -80 55 -6 5 -51 33 -100 63 -50 30
-92 56 -95 59 -5 5 -41 25 -100 57 -19 10 -37 21 -40 24 -3 3 -24 14 -47 24
-24 11 -43 22 -43 27 0 4 -6 8 -14 8 -7 0 -44 16 -81 35 -38 20 -125 61 -194
91 -69 31 -130 60 -135 64 -9 9 -13 2186 -4 2195 3 3 27 7 54 10 27 2 59 6 72
10 12 3 32 7 43 10 75 16 198 93 276 172 42 43 101 134 118 183 1 3 7 17 12
31 6 14 15 41 19 60 10 47 13 259 3 284 -15 40 -22 60 -25 72 -4 20 -48 107
-61 121 -7 7 -13 17 -13 22 0 18 -132 139 -187 172 -63 37 -148 70 -157 60 -3
-3 -6 -1 -6 5 0 5 -6 10 -12 11 -73 5 -117 10 -127 16 -6 4 -11 3 -11 -1 0 -7
-43 -9 -60 -3 -8 3 -52 1 -83 -3 -15 -2 -30 -1 -33 4 -2 5 -16 4 -30 -1 -16
-7 -23 -7 -19 0 3 5 0 7 -8 4 -24 -9 -137 -10 -137 -1 0 4 -4 6 -9 2 -17 -10
-71 -13 -71 -3 0 5 -4 7 -9 3 -17 -10 -71 -13 -71 -3 0 5 -4 7 -9 3 -17 -10
-71 -13 -71 -3 0 5 -4 7 -9 3 -17 -10 -71 -13 -71 -3 0 5 -4 7 -9 3 -17 -10
-71 -13 -71 -3 0 5 -4 7 -9 3 -17 -10 -71 -13 -71 -3 0 5 -4 7 -9 3 -14 -8
-71 -13 -71 -6 0 6 -39 5 -92 -2 -16 -2 -28 -1 -28 4 0 4 -13 4 -30 -1 -21 -6
-30 -5 -30 3 0 8 -3 8 -8 2 -6 -9 -29 -11 -57 -5 -14 3 -55 2 -87 -3 -16 -2
-28 -1 -28 4 0 4 -13 4 -30 -1 -21 -6 -30 -5 -30 3 0 8 -3 8 -8 2 -6 -9 -29
-11 -57 -5 -12 3 -51 1 -85 -3 -14 -2 -37 0 -52 4 -16 4 -28 4 -28 -1 0 -6
-10 -6 -24 0 -13 5 -26 6 -29 4 -9 -9 -57 -12 -57 -3 0 4 -13 4 -30 -1 -21 -6
-30 -5 -30 3 0 8 -3 8 -8 2 -6 -9 -29 -11 -57 -5 -14 3 -55 2 -87 -3 -16 -2
-28 -1 -28 4 0 4 -13 4 -30 -1 -21 -6 -30 -5 -30 3 0 8 -3 8 -8 2 -6 -9 -29
-11 -57 -5 -5 1 -23 2 -40 1 -16 -1 -37 -1 -45 -1 -16 0 -49 -1 -113 -4 -21
-1 -40 1 -42 4 -4 6 -29 5 -87 -3 -16 -2 -28 -1 -28 4 0 4 -13 4 -30 -1 -21
-6 -30 -5 -30 3 0 8 -3 8 -8 2 -6 -9 -29 -11 -57 -5 -14 3 -55 2 -87 -3 -16
-2 -28 -1 -28 4 0 4 -13 4 -30 -1 -21 -6 -30 -5 -30 3 0 8 -3 8 -8 2 -6 -9
-29 -11 -57 -5 -14 3 -55 2 -87 -3 -16 -2 -28 -1 -28 4 0 4 -13 4 -30 -1 -21
-6 -30 -5 -30 3 0 8 -3 8 -8 2 -6 -9 -29 -11 -57 -5 -14 3 -55 2 -87 -3 -16
-2 -28 -1 -28 4 0 4 -13 4 -30 -1 -21 -6 -30 -5 -30 3 0 8 -3 8 -8 2 -6 -9
-29 -11 -57 -5 -14 3 -55 2 -88 -3 -15 -2 -30 -1 -33 4 -2 5 -16 4 -30 -1 -16
-7 -23 -7 -19 0 3 5 0 7 -9 4 -20 -8 -137 -11 -141 -3 -5 7 -64 3 -72 -5 -3
-3 -13 -1 -23 4 -10 5 -20 7 -22 4z"/>
</g>
</svg>
