<svg width="18" height="17" viewBox="0 0 18 17" fill="none" xmlns="http://www.w3.org/2000/svg">
<g clip-path="url(#clip0_3_83)">
<path d="M-4.57764e-05 1.97499C-4.57764e-05 1.40259 0.202663 0.930364 0.608062 0.558322C1.01346 0.186263 1.5405 0.000242233 2.18914 0.000242233C2.82621 0.000242233 3.34165 0.183395 3.73548 0.549736C4.14087 0.927513 4.34358 1.41976 4.34358 2.0265C4.34358 2.576 4.14668 3.0339 3.75285 3.40024C3.34745 3.77801 2.81463 3.9669 2.15439 3.9669H2.13702C1.49995 3.9669 0.984516 3.77801 0.590688 3.40024C0.19686 3.02246 -4.57764e-05 2.54737 -4.57764e-05 1.97499ZM0.225823 17.0002V5.52953H4.08297V17.0002H0.225823ZM6.22003 17.0002H10.0772V10.5952C10.0772 10.1945 10.1235 9.8854 10.2162 9.6679C10.3783 9.27867 10.6245 8.94954 10.9546 8.68053C11.2847 8.4115 11.6988 8.277 12.1969 8.277C13.4942 8.277 14.1428 9.1413 14.1428 10.8699V17.0002H18V10.4235C18 8.72918 17.5946 7.44417 16.7837 6.56841C15.9729 5.69266 14.9015 5.25478 13.5695 5.25478C12.0752 5.25478 10.9112 5.89013 10.0772 7.16084V7.19518H10.0598L10.0772 7.16084V5.52953H6.22003C6.24319 5.89585 6.25478 7.0349 6.25478 8.94669C6.25478 10.8585 6.24319 13.543 6.22003 17.0002Z" fill="black"/>
</g>
<defs>
<clipPath id="clip0_3_83">
<rect width="18" height="17" fill="white"/>
</clipPath>
</defs>
</svg>
